# xmcd
#
# Track frame offsets: 
#        150
#        12655
#        26747
#        47392
#        65967
#        84760
#        100152
#        124622
#        138330
#        157927
#        171720
#        184502
#        204507
#        224712
#        242312
#        253762
#
# Disc length: 3523 seconds
#
# Revision: 4
# Processed by: cddbd v1.5.2PL0 Copyright (c) Steve Scherf et al.
# Submitted via: ExactAudioCopyFreeDBPlugin 1.0
#
DISCID=de0dc110
DTITLE=Various Artist - Best Blues Album In The World...Ever(disc2)
DYEAR=2000
DGENRE=Blues
TTITLE0=Albert King - Born Under A bad Sign
TTITLE1=Howlin' Wolf - Smokestack Lightnini'
TTITLE2=John Lee Hooker - Boogie At Russian Hill
TTITLE3=Robert Cray - Smoking Gun
TTITLE4=Stevie Ray Vaughn and Double Trouble - Crossfire
TTITLE5=Albert Collins - Frosty
TTITLE6=B.B. King - The Thrill is Gone
TTITLE7=T-Bone Walker - Call it Stormy Monday But Tuesday is Just as B
TTITLE7=ad
TTITLE8=Johnny Winter - Shame Shame Shame
TTITLE9=Slim Harpo - I'm a King Bee
TTITLE10=Jimmy Reed - Baby What You Want Me To Do
TTITLE11=James Cotton Blues Band - She Moves Me
TTITLE12=Buddy Guy - Damn Right, I've Got the Blues
TTITLE13=Junior Wells - Good Morning Little Schoolgirl
TTITLE14=George "Harmonica" Smith - Key to the Highway
TTITLE15=Memphis Slim - How Long
EXTD=YEAR: 2000
EXTT0=
EXTT1=
EXTT2=
EXTT3=
EXTT4=
EXTT5=
EXTT6=
EXTT7=
EXTT8=
EXTT9=
EXTT10=
EXTT11=
EXTT12=
EXTT13=
EXTT14=
EXTT15=
PLAYORDER=
